<svg id="Layer_1" data-name="Layer 1" xmlns="http://www.w3.org/2000/svg" viewBox="0 0 69.4 68.57"><defs><style>.cls-1{fill:#dedde0;}.cls-2{fill:#cdcdd0;}.cls-3{fill:#88abac;}.cls-4{fill:#2b3b4e;}.cls-5{fill:#fff;}.cls-6{fill:#f1f2f2;}.cls-7{fill:#be1e2d;}.cls-8{fill:#8f002e;}.cls-9{fill:#454857;}.cls-10{fill:#c3c9c8;}.cls-11{fill:none;stroke:#be1e2d;stroke-miterlimit:10;stroke-width:3px;}</style></defs><title>icon-original</title><path class="cls-1" d="M17.73,58V53.46H29V48.92H17.73V44.39H29V39.85H17.73V35.32H29V30.78H17.73V26.25H29V6.6H17.73V17.18H8.1l-.24.27V68.57H29V58Zm0,0"/><path class="cls-2" d="M50.17,58V6.6H29V17.18H40.3v4.54H29v4.53H40.3v4.53H29v4.54H40.3v4.53H29V68.57H43.15C42.28,64,44.62,58.72,50.17,58Z"/><path class="cls-3" d="M15.51,56.19V51.65H26.79V47.12H15.51V42.58H26.79V38.05H15.51V33.52H26.79V29H15.51V24.45H26.79V4.8H15.51V15.38H5.88l-.24.26V66.77H26.79V56.19Zm0,0"/><polygon class="cls-4" points="26.79 4.8 26.79 15.38 38.08 15.38 38.08 19.91 26.79 19.91 26.79 24.45 38.08 24.45 38.08 28.98 26.79 28.98 26.79 33.52 38.08 33.52 38.08 38.05 26.79 38.05 26.79 38.05 26.79 53.52 26.79 53.52 26.79 66.77 47.95 66.77 47.95 4.8 26.79 4.8"/><path class="cls-2" d="M9.88,51.39V46.86H21.16V42.32H9.88V37.79H21.16V33.25H9.88V28.72H21.16V24.18H9.88V19.65H21.16V0H9.88L0,10.84H0V62H21.16V51.39Zm0,0"/><rect class="cls-5" x="21.16" y="10.58" width="11.28" height="4.53"/><rect class="cls-5" x="9.88" y="46.86" width="11.28" height="4.53"/><rect class="cls-5" x="9.88" y="19.65" width="22.57" height="4.53"/><rect class="cls-5" x="9.88" y="28.72" width="22.57" height="4.53"/><rect class="cls-5" x="9.88" y="37.79" width="11.54" height="4.53"/><polygon class="cls-1" points="21.16 0 21.16 10.58 32.44 10.58 32.44 15.12 21.16 15.12 21.16 19.65 32.44 19.65 32.44 24.18 21.16 24.18 21.16 28.72 32.44 28.72 32.44 33.25 21.16 33.25 21.16 33.25 21.16 48.73 21.16 48.73 21.16 61.97 42.31 61.97 42.31 0 21.16 0"/><circle class="cls-5" cx="52.31" cy="51.49" r="17.09"/><circle class="cls-6" cx="52.31" cy="51.49" r="13.65" transform="translate(-21.08 52.07) rotate(-45)"/><path class="cls-7" d="M63.51,40.29a15.83,15.83,0,1,0,0,22.39A15.84,15.84,0,0,0,63.51,40.29ZM42.27,61.53a14.2,14.2,0,1,1,20.08,0A14.22,14.22,0,0,1,42.27,61.53Z"/><path class="cls-8" d="M52.31,37.29a14.2,14.2,0,1,0,14.2,14.2A14.2,14.2,0,0,0,52.31,37.29Zm0,27.85A13.65,13.65,0,1,1,66,51.49,13.67,13.67,0,0,1,52.31,65.14Z"/><path class="cls-1" d="M62,41.83A13.65,13.65,0,0,0,42.66,61.14Z"/><path class="cls-9" d="M55.42,42.68,44.1,54v5.66h5.65L61.07,48.33Zm-7.66,15L46.09,56h0V54.84l9.33-9.33,2.83,2.82-9.33,9.34Z"/><rect class="cls-9" x="58.78" y="40.17" width="1.62" height="8" transform="translate(-13.78 55.07) rotate(-45)"/><polygon class="cls-10" points="46.52 56.43 46.09 56.01 46.09 54.84 46.09 54.84 55.42 45.51 56.43 46.52 46.52 56.43"/><polygon class="cls-4" points="58.25 45.51 56.83 46.92 58.24 48.33 48.92 57.67 47.76 57.67 46.92 56.84 44.09 59.66 44.09 59.67 49.75 59.67 61.07 48.33 58.25 45.51"/><rect class="cls-4" x="59" y="44.77" width="4" height="1.62" transform="translate(50.1 -29.78) rotate(45)"/><line class="cls-11" x1="42.13" y1="41.57" x2="62.13" y2="61.57"/></svg>