<svg id="Layer_1" data-name="Layer 1" xmlns="http://www.w3.org/2000/svg" viewBox="0 0 34.17 34.17"><defs><style>.cls-1{fill:#fff;}.cls-2{fill:#f1f2f2;}.cls-3{fill:#659876;}.cls-4{fill:#619372;}.cls-5{fill:#dedde0;}.cls-6{fill:#454857;}.cls-7{fill:#c3c9c8;}.cls-8{fill:#2b3b4e;}</style></defs><title>icon-editable-circle</title><circle class="cls-1" cx="17.09" cy="17.09" r="17.09"/><circle class="cls-2" cx="17.09" cy="17.09" r="13.65" transform="translate(-7.08 17.09) rotate(-45)"/><path class="cls-3" d="M28.28,5.89a15.83,15.83,0,1,0,0,22.39A15.84,15.84,0,0,0,28.28,5.89ZM7,27.13a14.21,14.21,0,1,1,20.09,0A14.22,14.22,0,0,1,7,27.13Z"/><path class="cls-4" d="M17.09,2.88a14.21,14.21,0,1,0,14.2,14.21A14.21,14.21,0,0,0,17.09,2.88Zm0,27.86A13.65,13.65,0,1,1,30.74,17.09,13.67,13.67,0,0,1,17.09,30.74Z"/><path class="cls-5" d="M26.74,7.43A13.65,13.65,0,0,0,7.43,26.74Z"/><path class="cls-6" d="M20.19,8.28,8.87,19.61v5.66h5.65L25.84,13.93Zm-7.66,15L10.86,21.6h0V20.44l9.33-9.34L23,13.93l-9.33,9.34Z"/><rect class="cls-6" x="23.55" y="5.77" width="1.62" height="8" transform="translate(0.23 20.09) rotate(-45)"/><polygon class="cls-7" points="11.29 22.03 10.86 21.61 10.86 20.44 10.86 20.44 20.19 11.1 21.2 12.12 11.29 22.03"/><polygon class="cls-8" points="23.02 11.11 21.61 12.52 23.02 13.93 13.69 23.27 12.53 23.27 11.69 22.43 8.87 25.26 8.87 25.27 14.52 25.27 25.84 13.93 23.02 11.11"/><rect class="cls-8" x="23.77" y="10.37" width="4" height="1.62" transform="translate(15.46 -14.95) rotate(45)"/></svg>