<?xml version="1.0" encoding="utf-8"?>
<!-- Generator: Adobe Illustrator 24.0.1, SVG Export Plug-In . SVG Version: 6.00 Build 0)  -->
<svg version="1.1" id="Layer_1" xmlns="http://www.w3.org/2000/svg" xmlns:xlink="http://www.w3.org/1999/xlink" x="0px" y="0px"
	 viewBox="0 0 69.4 68.6" style="enable-background:new 0 0 69.4 68.6;" xml:space="preserve">
<style type="text/css">
	.st0{fill:#DEDDE0;}
	.st1{fill:#CDCDD0;}
	.st2{fill:#88ABAC;}
	.st3{fill:#2B3B4E;}
	.st4{fill:#FFFFFF;}
</style>
<title>icon-original</title>
<path class="st0" d="M17.7,58v-4.5H29v-4.5H17.7v-4.5H29v-4.5H17.7v-4.5H29v-4.5H17.7v-4.5H29V6.6H17.7v10.6H8.1l-0.2,0.3v51.1H29
	V58H17.7z"/>
<path class="st1" d="M50.2,58V6.6H29v10.6h11.3v4.5H29v4.5h11.3v4.5H29v4.5h11.3v4.5H29v28.7h14.2C42.3,64,44.6,58.7,50.2,58z"/>
<path class="st2" d="M15.5,56.2v-4.5h11.3v-4.5H15.5v-4.5h11.3V38H15.5v-4.5h11.3V29H15.5v-4.5h11.3V4.8H15.5v10.6H5.9l-0.2,0.3
	v51.1h21.2V56.2H15.5z"/>
<polygon class="st3" points="26.8,4.8 26.8,15.4 38.1,15.4 38.1,19.9 26.8,19.9 26.8,24.5 38.1,24.5 38.1,29 26.8,29 26.8,33.5 
	38.1,33.5 38.1,38 26.8,38 26.8,38 26.8,53.5 26.8,53.5 26.8,66.8 48,66.8 48,4.8 "/>
<path class="st1" d="M9.9,51.4v-4.5h11.3v-4.5H9.9v-4.5h11.3v-4.5H9.9v-4.5h11.3v-4.5H9.9v-4.5h11.3V0H9.9L0,10.8l0,0V62h21.2V51.4
	H9.9z"/>
<rect x="21.2" y="10.6" class="st4" width="11.3" height="4.5"/>
<rect x="9.9" y="46.9" class="st4" width="11.3" height="4.5"/>
<rect x="9.9" y="19.6" class="st4" width="22.6" height="4.5"/>
<rect x="9.9" y="28.7" class="st4" width="22.6" height="4.5"/>
<rect x="9.9" y="37.8" class="st4" width="11.5" height="4.5"/>
<polygon class="st0" points="21.2,0 21.2,10.6 32.4,10.6 32.4,15.1 21.2,15.1 21.2,19.6 32.4,19.6 32.4,24.2 21.2,24.2 21.2,28.7 
	32.4,28.7 32.4,33.3 21.2,33.3 21.2,33.3 21.2,48.7 21.2,48.7 21.2,62 42.3,62 42.3,0 "/>
</svg>
